<?xml version="1.0" standalone="no"?>
<!DOCTYPE svg PUBLIC "-//W3C//DTD SVG 20010904//EN"
 "http://www.w3.org/TR/2001/REC-SVG-20010904/DTD/svg10.dtd">
<svg version="1.0" xmlns="http://www.w3.org/2000/svg"
 width="512.000000pt" height="512.000000pt" viewBox="0 0 512.000000 512.000000"
 preserveAspectRatio="xMidYMid meet">
<metadata>
Created by potrace 1.16, written by Peter Selinger 2001-2019
</metadata>
<g transform="translate(0.000000,512.000000) scale(0.100000,-0.100000)"
fill="#000000" stroke="none">
<path d="M1150 4721 c-207 -28 -386 -161 -473 -351 -34 -74 -57 -157 -57 -206
0 -20 8 -11 33 37 81 158 281 232 450 169 109 -41 205 -154 254 -300 17 -52
18 -130 21 -1637 l2 -1583 64 0 c117 0 279 40 419 103 l67 30 0 735 0 734 28
-7 c100 -25 277 -211 422 -443 85 -138 159 -271 348 -622 282 -525 360 -648
502 -790 101 -101 200 -170 313 -215 187 -77 429 -97 608 -51 290 74 540 275
673 543 76 152 114 348 100 512 l-7 86 -13 -81 c-48 -297 -251 -506 -557 -571
-98 -21 -280 -13 -360 16 -138 49 -274 146 -419 300 -105 111 -200 233 -408
521 -90 124 -190 259 -224 300 -95 117 -253 276 -341 343 -153 115 -339 186
-502 190 -45 1 -79 4 -75 8 4 3 39 13 77 23 95 24 273 111 372 182 102 74 247
202 473 419 199 191 249 232 341 274 127 60 235 63 346 10 145 -69 234 -256
195 -404 -10 -37 -10 -39 5 -20 59 75 113 265 120 420 10 220 -30 342 -146
446 -92 82 -197 122 -321 122 -130 0 -268 -55 -391 -157 -55 -45 -316 -338
-1016 -1143 l-143 -164 0 708 c0 455 -4 740 -11 798 -31 251 -132 457 -281
576 -131 104 -330 161 -488 140z"/>
</g>
</svg>
